PathFileType	4	(X/Y/Z)	/Users/itak/Documents/Research/Walk-IL/dataset/trc/00427_00167.trc
DataRate	CameraRate	NumFrames	NumMarkers	Units	OrigDataRate	OrigDataStartFrame	OrigNumFrames
100.000000	100.000000	4	53	mm	100.000000	569	651
Frame#	Time	RPSI			LPSI			L3			STRN			T10			C7			CLAV			RBAK			LBAK			LSHO			LUPA			LAEL			LAOL			LWTS			LWPS			LFRA			LIFD			LHPS			LHTS			RSHO			RUPA			RAEL			RAOL			RWTS			RWPS			RFRA			RIFD			RHTS			RHPS			RBHD			LFHD			RFHD			LBHD			LHIP			RHIP			RASI			LASI			LKNE			LTHI			LANK			LTIP			LTOE			LMT1			LMT5			LHEE			RKNE			RTHI			RANK			RTIP			RTOE			RMT1			RMT5			RHEE			
		X1	Y1	Z1	X2	Y2	Z2	X3	Y3	Z3	X4	Y4	Z4	X5	Y5	Z5	X6	Y6	Z6	X7	Y7	Z7	X8	Y8	Z8	X9	Y9	Z9	X10	Y10	Z10	X11	Y11	Z11	X12	Y12	Z12	X13	Y13	Z13	X14	Y14	Z14	X15	Y15	Z15	X16	Y16	Z16	X17	Y17	Z17	X18	Y18	Z18	X19	Y19	Z19	X20	Y20	Z20	X21	Y21	Z21	X22	Y22	Z22	X23	Y23	Z23	X24	Y24	Z24	X25	Y25	Z25	X26	Y26	Z26	X27	Y27	Z27	X28	Y28	Z28	X29	Y29	Z29	X30	Y30	Z30	X31	Y31	Z31	X32	Y32	Z32	X33	Y33	Z33	X34	Y34	Z34	X35	Y35	Z35	X36	Y36	Z36	X37	Y37	Z37	X38	Y38	Z38	X39	Y39	Z39	X40	Y40	Z40	X41	Y41	Z41	X42	Y42	Z42	X43	Y43	Z43	X44	Y44	Z44	X45	Y45	Z45	X46	Y46	Z46	X47	Y47	Z47	X48	Y48	Z48	X49	Y49	Z49	X50	Y50	Z50	X51	Y51	Z51	X52	Y52	Z52	X53	Y53	Z53	

570	5.69	1081.884399414062	965.2389526367188	1027.1552734375	1180.33837890625	961.9578247070312	925.3511352539062	1133.566284179688	1055.213012695312	992.5730590820312	1343.4599609375	1244.384399414062	1152.735595703125	1121.469116210938	1178.917236328125	970.8361206054688	1168.306518554688	1447.807373046875	1017.330383300781	1319.644653320312	1357.56201171875	1123.107055664062	1057.739990234375	1330.960205078125	1053.509765625	1208.64306640625	1397.789306640625	919.9800415039062	1340.46630859375	1412.092407226562	926.1032104492188	1391.444091796875	1292.794921875	840.1466674804688	1408.307006835938	1073.515869140625	822.4337158203125	1304.681640625	1068.87841796875	825.8522338867188	1417.486694335938	858.1488037109375	886.68310546875	1416.168579101562	851.4361572265625	813.0497436523438	1420.348022460938	983.578369140625	819.9453125	1390.89501953125	691.451416015625	864.2847900390625	1404.847045898438	770.6516723632812	808.1963500976562	1417.849243164062	765.6614990234375	877.702392578125	1123.08056640625	1416.293090820312	1188.991577148438	1059.129150390625	1358.170654296875	1237.51025390625	1010.746215820312	1072.407470703125	1281.95166015625	995.00439453125	1057.77392578125	1218.047607421875	1104.83740234375	863.3778076171875	1310.797241210938	1018.106689453125	853.68359375	1313.715576171875	1004.41943359375	1014.415283203125	1291.631713867188	1090.309936523438	703.8486938476562	1307.523193359375	1101.661376953125	761.256591796875	1322.958862304688	1027.168579101562	764.7296752929688	1317.703491210938	1180.194458007812	1635.8896484375	1137.64599609375	1381.3408203125	1656.196166992188	1094.196411132812	1302.99951171875	1654.218505859375	1197.996459960938	1273.51318359375	1643.44677734375	986.966796875	1354.9892578125	848.5640869140625	935.1107788085938	1068.4609375	855.8327026367188	1206.192749023438	1184.913696289062	896.1729125976562	1235.86474609375	1371.091430664062	888.3893432617188	1058.822509765625	1329.021728515625	424.4559936523438	1001.049072265625	1360.686279296875	581.0431518554688	990.2180786132812	1240.376708984375	26.45006561279297	953.5308837890625	1313.26416015625	266.1910095214844	989.8823852539062	1338.458251953125	33.67182922363281	1164.956787109375	1268.164306640625	38.62837600708008	1128.964477539062	1351.6181640625	29.63486671447754	1052.798095703125	1168.16357421875	30.04116249084473	945.0391845703125	1104.187622070312	456.1186828613281	1214.473754882812	1115.426391601562	712.009521484375	1264.573364257812	1089.775268554688	31.55520629882812	1208.086791992188	1094.269287109375	312.2770690917969	1228.598510742188	1288.598876953125	36.53450775146484	1303.82275390625	1259.91455078125	40.24018478393555	1236.573364257812	1180.340942382812	37.58082580566406	1308.5546875	1067.193603515625	21.41095161437988	1131.666381835938	
571	5.7	1081.081176757812	965.358642578125	1028.560791015625	1179.462524414062	962.3287963867188	926.5735473632812	1132.884155273438	1055.185913085938	994.0972900390625	1343.15625	1244.200439453125	1154.390380859375	1121.100830078125	1178.99169921875	972.5191040039062	1167.975463867188	1447.840942382812	1019.077392578125	1319.419677734375	1357.428466796875	1124.920532226562	1057.383544921875	1330.943115234375	1055.33349609375	1208.48779296875	1397.849731445312	921.7865600585938	1340.264770507812	1412.357177734375	928.0469970703125	1391.552368164062	1293.34814453125	841.9093627929688	1408.478149414062	1074.064453125	823.6339111328125	1304.90283203125	1069.27294921875	827.0946044921875	1418.443603515625	858.8681640625	888.368408203125	1416.866821289062	851.872314453125	814.78369140625	1420.775390625	984.13134765625	821.3031005859375	1391.640380859375	692.0441284179688	866.8405151367188	1405.372436523438	770.974853515625	810.3153686523438	1418.7685546875	766.3167114257812	879.777099609375	1122.900024414062	1416.262573242188	1190.712524414062	1059.002319335938	1358.104125976562	1239.359985351562	1011.491455078125	1072.283935546875	1284.917846679688	995.3124389648438	1057.144653320312	1221.209106445312	1107.976928710938	864.3715209960938	1314.139282226562	1021.473327636719	853.7429809570312	1317.851928710938	1005.769958496094	1014.255187988281	1294.957641601562	1095.562622070312	704.9176635742188	1311.874389648438	1106.171264648438	762.2942504882812	1326.7607421875	1031.501586914062	764.6898193359375	1321.883178710938	1179.432250976562	1635.953125	1138.9384765625	1380.53564453125	1656.622436523438	1095.537353515625	1302.09521484375	1654.766845703125	1199.244995117188	1272.771240234375	1643.258422851562	988.2571411132812	1353.975463867188	848.7591552734375	935.9548950195312	1067.770385742188	855.633056640625	1207.2373046875	1184.283935546875	895.7138671875	1237.083251953125	1370.232421875	888.2583618164062	1059.744018554688	1328.505126953125	424.5904235839844	1001.424865722656	1359.971923828125	581.1327514648438	990.4754638671875	1240.234130859375	26.52532958984375	953.6619873046875	1312.815185546875	266.2828063964844	990.1353759765625	1338.679565429688	33.92217254638672	1164.755004882812	1268.3251953125	38.55656814575195	1129.005737304688	1351.561279296875	29.69091606140137	1052.656616210938	1167.960815429688	30.12443733215332	945.201416015625	1103.234985351562	455.9632263183594	1214.444091796875	1113.935791015625	712.0390014648438	1264.178466796875	1089.720581054688	31.4617805480957	1207.992431640625	1093.539428710938	312.0904235839844	1228.495361328125	1288.552490234375	36.52579116821289	1303.79248046875	1259.873657226562	40.27990341186523	1236.607666015625	1180.261962890625	37.5600700378418	1308.53173828125	1067.208129882812	21.33904838562012	1131.573852539062	
572	5.71	1080.203369140625	965.4651489257812	1029.978637695312	1178.435302734375	962.6786499023438	927.75927734375	1132.096435546875	1055.143432617188	995.6310424804688	1342.829467773438	1243.92431640625	1156.026000976562	1120.631591796875	1179.072387695312	974.17041015625	1167.6533203125	1447.8583984375	1020.837768554688	1319.179077148438	1357.211547851562	1126.721435546875	1056.992553710938	1330.9208984375	1057.1455078125	1208.336303710938	1397.883178710938	923.5758666992188	1340.070434570312	1412.486206054688	929.9744262695312	1391.68212890625	1293.706909179688	843.7363891601562	1408.91259765625	1074.441650390625	824.9700317382812	1305.383178710938	1069.448974609375	828.244384765625	1419.608154296875	859.4722900390625	890.2914428710938	1417.962524414062	852.150390625	816.7598266601562	1421.515380859375	984.522705078125	822.85693359375	1392.746826171875	692.515869140625	869.6950073242188	1406.355834960938	771.1257934570312	812.704833984375	1419.966430664062	766.8668212890625	882.1549682617188	1122.720947265625	1416.103515625	1192.459838867188	1058.9013671875	1357.878662109375	1241.232543945312	1012.268249511719	1072.04541015625	1287.972290039062	995.6223754882812	1056.402587890625	1224.472778320312	1111.225219726562	865.4599609375	1317.662353515625	1024.905029296875	853.775146484375	1322.115844726562	1007.17578125	1014.001708984375	1298.374755859375	1100.912963867188	705.9571533203125	1316.49365234375	1110.802734375	763.402587890625	1330.822509765625	1035.95751953125	764.6741943359375	1326.327270507812	1178.72119140625	1635.982299804688	1140.259765625	1379.773559570312	1657.002075195312	1096.877807617188	1301.250244140625	1655.272827148438	1200.511840820312	1272.057495117188	1643.005859375	989.564453125	1352.857299804688	848.9390258789062	936.6773071289062	1067.000854492188	855.3843383789062	1208.228759765625	1183.677978515625	895.2338256835938	1238.239135742188	1369.302734375	888.1200561523438	1060.530151367188	1328.044921875	424.7031860351562	1001.827087402344	1359.287963867188	581.2196655273438	990.7149658203125	1240.08203125	26.59135055541992	953.7651977539062	1312.388427734375	266.396240234375	990.4461669921875	1338.920043945312	34.17391204833984	1164.560424804688	1268.475830078125	38.49694442749023	1129.031127929688	1351.49853515625	29.7471866607666	1052.510375976562	1167.725830078125	30.20349502563477	945.3847045898438	1102.368896484375	455.7743530273438	1214.468994140625	1112.499877929688	712.04833984375	1263.8154296875	1089.675415039062	31.38024711608887	1207.90771484375	1092.90283203125	311.8818664550781	1228.442993164062	1288.51904296875	36.51973724365234	1303.75146484375	1259.850463867188	40.30379104614258	1236.62646484375	1180.194580078125	37.54868316650391	1308.503173828125	1067.21923828125	21.26564788818359	1131.478393554688	
573	5.72	1079.27099609375	965.588134765625	1031.384521484375	1177.28076171875	963.002197265625	928.8971557617188	1131.234497070312	1055.120239257812	997.1444702148438	1342.48046875	1243.586791992188	1157.631958007812	1120.0546875	1179.179321289062	975.7513427734375	1167.337158203125	1447.872802734375	1022.603942871094	1318.916870117188	1356.941772460938	1128.499267578125	1056.576171875	1330.914428710938	1058.9365234375	1208.173583984375	1397.911499023438	925.336669921875	1339.870361328125	1412.498779296875	931.8690185546875	1391.810668945312	1293.887084960938	845.6172485351562	1409.60107421875	1074.668701171875	826.4672241210938	1306.111450195312	1069.420288085938	829.3276977539062	1420.94384765625	859.9771118164062	892.459716796875	1419.449584960938	852.3033447265625	818.9824829101562	1422.556030273438	984.7769775390625	824.625	1394.247436523438	692.885009765625	872.7979736328125	1407.833740234375	771.1460571289062	815.3453369140625	1421.440673828125	767.3338012695312	884.8209838867188	1122.54052734375	1415.847045898438	1194.228759765625	1058.8291015625	1357.540649414062	1243.129272460938	1013.082336425781	1071.723876953125	1291.084594726562	995.9552001953125	1055.5869140625	1227.812744140625	1114.563110351562	866.664794921875	1321.3359375	1028.376953125	853.8130493164062	1326.466796875	1008.642517089844	1013.686584472656	1301.851196289062	1106.306274414062	706.989990234375	1321.369140625	1115.521484375	764.620849609375	1335.136596679688	1040.518920898438	764.760986328125	1331.0546875	1178.06298828125	1635.976440429688	1141.612426757812	1379.062255859375	1657.333374023438	1098.225830078125	1300.4716796875	1655.729858398438	1201.803588867188	1271.380249023438	1642.705810546875	990.8998413085938	1351.651489257812	849.101806640625	937.2824096679688	1066.185668945312	855.123046875	1209.1865234375	1183.1103515625	894.77978515625	1239.317504882812	1368.334716796875	887.9922485351562	1061.185913085938	1327.645263671875	424.7846069335938	1002.270751953125	1358.639404296875	581.2943115234375	990.955078125	1239.917358398438	26.65386199951172	953.845458984375	1311.995727539062	266.5186767578125	990.8062744140625	1339.180786132812	34.41581726074219	1164.386474609375	1268.614135742188	38.44777297973633	1129.052612304688	1351.43359375	29.80180740356445	1052.367431640625	1167.464965820312	30.28915405273438	945.6013793945312	1101.59814453125	455.5790100097656	1214.591064453125	1111.135620117188	712.0615844726562	1263.533447265625	1089.6337890625	31.29996299743652	1207.838012695312	1092.357666015625	311.66845703125	1228.467041015625	1288.491943359375	36.51707077026367	1303.699584960938	1259.835327148438	40.31851959228516	1236.637451171875	1180.133666992188	37.54225158691406	1308.4794921875	1067.212280273438	21.18841552734375	1131.3955078125	
